<svg width="258" height="258" viewBox="0 0 258 258" fill="none" xmlns="http://www.w3.org/2000/svg">
<path d="M94.3474 40.9501C137.034 24.1203 186.749 40.6085 210.382 81.5429C236.397 126.602 220.959 184.218 175.9 210.232C130.842 236.247 73.2254 220.809 47.2108 175.75C23.3078 134.349 34.4014 82.3456 71.313 53.9962" stroke="#0D1823" stroke-opacity="0.4" stroke-dasharray="2 2"/>
<path d="M107.626 77.0624C132.805 66.6806 162.462 76.0078 176.866 100.084C192.721 126.586 184.09 160.923 157.588 176.778C131.086 192.633 96.7487 184.001 80.8939 157.499C66.326 133.148 72.4306 102.183 94.0759 85.0175" stroke="url(#paint0_linear_555_169)"/>
<path d="M115.879 104.304C115.807 104.571 115.533 104.729 115.266 104.658L110.92 103.493C110.653 103.422 110.495 103.148 110.566 102.881C110.638 102.614 110.912 102.456 111.178 102.527L115.042 103.563L116.077 99.6989C116.149 99.4321 116.423 99.2738 116.69 99.3453C116.957 99.4168 117.115 99.6909 117.043 99.9577L115.879 104.304ZM66.7787 18.9678L115.829 103.925L114.963 104.425L65.9127 19.4678L66.7787 18.9678Z" fill="url(#paint1_linear_555_169)" fill-opacity="0.4"/>
<circle cx="129.559" cy="129" r="7.39108" fill="#D61336"/>
<defs>
<linearGradient id="paint0_linear_555_169" x1="157.588" y1="176.778" x2="100.421" y2="81.2214" gradientUnits="userSpaceOnUse">
<stop stop-color="#D61336"/>
<stop offset="1" stop-color="#D61336" stop-opacity="0"/>
</linearGradient>
<linearGradient id="paint1_linear_555_169" x1="115.829" y1="103.925" x2="66.7787" y2="18.9678" gradientUnits="userSpaceOnUse">
<stop stop-color="#0D1823"/>
<stop offset="1" stop-color="#0D1823" stop-opacity="0"/>
</linearGradient>
</defs>
</svg>
