<svg width="317" height="126" viewBox="0 0 317 126" fill="none" xmlns="http://www.w3.org/2000/svg">
<rect x="0.5" y="1.5" width="101" height="123" stroke="#0D1823" stroke-opacity="0.4"/>
<path fill-rule="evenodd" clip-rule="evenodd" d="M107 6V4H108V6H107ZM107 2V1H108V2H107ZM111.904 1H109.942V2H111.904V1ZM108 125V124H107V125H108ZM208 125H209V124H208V125ZM209 2V1H208V2L209 2ZM113.865 1V2H115.827V1H113.865ZM117.788 1V2H119.75V1H117.788ZM121.711 1V2H123.673V1H121.711ZM125.635 1V2H127.596V1H125.635ZM129.558 1V2H131.519V1H129.558ZM133.481 1V2H135.442V1H133.481ZM137.404 1V2H139.365V1H137.404ZM141.327 1V2H143.288V1H141.327ZM145.25 1V2H147.212V1H145.25ZM149.173 1V2H151.135V1H149.173ZM153.096 1V2H155.058V1H153.096ZM157.019 1V2H158.981V1H157.019ZM160.942 1V2H162.904V1H160.942ZM164.865 1V2H166.827V1H164.865ZM168.788 1V2H170.75V1H168.788ZM172.712 1V2H174.673V1H172.712ZM176.635 1V2H178.596V1H176.635ZM180.558 1V2H182.519V1H180.558ZM184.481 1V2H186.442V1H184.481ZM188.404 1V2H190.365V1H188.404ZM192.327 1V2H194.288V1H192.327ZM196.25 1V2H198.212V1H196.25ZM200.173 1V2H202.135V1H200.173ZM204.096 1V2H206.058V1H204.096ZM209 4H208V6H209V4ZM209 8H208V10H209V8ZM209 12H208V14H209V12ZM209 16H208V18H209V16ZM209 20H208V22H209V20ZM209 24H208V26H209V24ZM209 28H208V30H209V28ZM209 32H208V34H209V32ZM209 36H208V38H209V36ZM209 40H208V42H209V40ZM209 44H208V46H209V44ZM209 48H208V50H209V48ZM209 52H208V54H209V52ZM209 56H208V58H209V56ZM209 60H208V62H209V60ZM209 64H208V66H209V64ZM209 68H208V70H209V68ZM209 72H208V74H209V72ZM209 76H208V78H209V76ZM209 80H208V82H209V80ZM209 84H208V86H209V84ZM209 88H208V90H209V88ZM209 92H208V94H209V92ZM209 96H208V98H209V96ZM209 100H208V102H209V100ZM209 104H208V106H209V104ZM209 108H208V110H209V108ZM209 112H208V114H209V112ZM209 116H208V118H209V116ZM209 120H208V122H209V120ZM206.058 125V124H204.096V125H206.058ZM202.135 125V124H200.173V125H202.135ZM198.212 125V124H196.25V125H198.212ZM194.289 125V124H192.327V125H194.289ZM190.365 125V124H188.404V125H190.365ZM186.442 125V124H184.481V125H186.442ZM182.519 125V124H180.558V125H182.519ZM178.596 125V124H176.635V125H178.596ZM174.673 125V124H172.712V125H174.673ZM170.75 125V124H168.788V125H170.75ZM166.827 125V124H164.865V125H166.827ZM162.904 125V124H160.942V125H162.904ZM158.981 125V124H157.019V125H158.981ZM155.058 125V124H153.096V125H155.058ZM151.135 125V124H149.173V125H151.135ZM147.212 125V124H145.25V125H147.212ZM143.288 125V124H141.327V125H143.288ZM139.365 125V124H137.404V125H139.365ZM135.442 125V124H133.481V125H135.442ZM131.519 125V124H129.558V125H131.519ZM127.596 125V124H125.635V125H127.596ZM123.673 125V124H121.712V125H123.673ZM119.75 125V124H117.788V125H119.75ZM115.827 125V124H113.865V125H115.827ZM111.904 125V124H109.942V125H111.904ZM107 122H108V120H107V122ZM107 118H108V116H107V118ZM107 114H108V112H107V114ZM107 110H108V108H107V110ZM107 106H108V104H107V106ZM107 102H108V100H107V102ZM107 98H108V96H107V98ZM107 94H108V92H107V94ZM107 90H108V88H107V90ZM107 86H108V84H107V86ZM107 82H108V80H107V82ZM107 78H108V76H107V78ZM107 74H108V72H107V74ZM107 70H108V68H107V70ZM107 66H108V64H107V66ZM107 62H108V60H107V62ZM107 58H108V56H107V58ZM107 54H108V52H107V54ZM107 50H108V48H107V50ZM107 46H108V44H107V46ZM107 42H108V40H107V42ZM107 38H108V36H107V38ZM107 34H108V32H107V34ZM107 30H108V28H107V30ZM107 26H108V24H107V26ZM107 22H108V20H107V22ZM107 18H108V16H107V18ZM107 14H108V12H107V14ZM107 10H108V8H107V10Z" fill="#0D1823" fill-opacity="0.4"/>
<rect x="214" y="1" width="102" height="124" stroke="url(#paint0_linear_2010_106)"/>
<defs>
<linearGradient id="paint0_linear_2010_106" x1="212.5" y1="-1.5" x2="311.5" y2="125" gradientUnits="userSpaceOnUse">
<stop stop-color="#D61336" stop-opacity="0"/>
<stop offset="1" stop-color="#D61336"/>
</linearGradient>
</defs>
</svg>
