<svg width="381" height="191" viewBox="0 0 381 191" fill="none" xmlns="http://www.w3.org/2000/svg">
<mask id="mask0_539_424" style="mask-type:alpha" maskUnits="userSpaceOnUse" x="0" y="78" width="381" height="113">
<rect x="381" y="191" width="381" height="113" transform="rotate(-180 381 191)" fill="#575757"/>
</mask>
<g mask="url(#mask0_539_424)">
<path d="M105.5 78C105.5 31.3319 143.332 -6.5 190 -6.49999C236.668 -6.49999 274.5 31.3319 274.5 78C274.5 124.668 236.668 162.5 190 162.5C143.332 162.5 105.5 124.668 105.5 78Z" stroke="#0D1823" stroke-opacity="0.4"/>
</g>
<mask id="mask1_539_424" style="mask-type:alpha" maskUnits="userSpaceOnUse" x="0" y="0" width="381" height="78">
<rect width="381" height="78" transform="matrix(-1 -8.74228e-08 -8.74228e-08 1 381 0)" fill="#575757"/>
</mask>
<g mask="url(#mask1_539_424)">
<path d="M118.5 78C118.5 37.9594 150.959 5.50001 191 5.50001C231.041 5.50001 263.5 37.9594 263.5 78C263.5 118.041 231.041 150.5 191 150.5C150.959 150.5 118.5 118.041 118.5 78Z" stroke="#0D1823" stroke-opacity="0.4"/>
</g>
<line x1="366" y1="78.5" x2="14" y2="78.4999" stroke="url(#paint0_linear_539_424)"/>
<defs>
<linearGradient id="paint0_linear_539_424" x1="366" y1="77.5" x2="14" y2="77.4999" gradientUnits="userSpaceOnUse">
<stop stop-color="#D61336" stop-opacity="0"/>
<stop offset="1" stop-color="#D61336"/>
</linearGradient>
</defs>
</svg>
