<svg width="381" height="191" viewBox="0 0 381 191" fill="none" xmlns="http://www.w3.org/2000/svg">
<path d="M112.354 115.646C112.158 115.451 111.842 115.451 111.646 115.646L108.464 118.828C108.269 119.024 108.269 119.34 108.464 119.536C108.66 119.731 108.976 119.731 109.172 119.536L112 116.707L114.828 119.536C115.024 119.731 115.34 119.731 115.536 119.536C115.731 119.34 115.731 119.024 115.536 118.828L112.354 115.646ZM112.5 191L112.5 116L111.5 116L111.5 191L112.5 191Z" fill="url(#paint0_linear_539_784)" fill-opacity="0.4"/>
<path d="M111.646 75.3536C111.842 75.5488 112.158 75.5488 112.354 75.3536L115.536 72.1716C115.731 71.9763 115.731 71.6597 115.536 71.4645C115.34 71.2692 115.024 71.2692 114.828 71.4645L112 74.2929L109.172 71.4645C108.976 71.2692 108.66 71.2692 108.464 71.4645C108.269 71.6597 108.269 71.9763 108.464 72.1716L111.646 75.3536ZM112.5 75L112.5 2.18557e-08L111.5 -2.18557e-08L111.5 75L112.5 75Z" fill="url(#paint1_linear_539_784)" fill-opacity="0.4"/>
<path d="M92.3536 95.3536C92.5488 95.1583 92.5488 94.8417 92.3536 94.6464L89.1716 91.4645C88.9763 91.2692 88.6597 91.2692 88.4645 91.4645C88.2692 91.6597 88.2692 91.9763 88.4645 92.1716L91.2929 95L88.4645 97.8284C88.2692 98.0237 88.2692 98.3403 88.4645 98.5355C88.6597 98.7308 88.9763 98.7308 89.1716 98.5355L92.3536 95.3536ZM0 95.5H92V94.5H0V95.5Z" fill="url(#paint2_linear_539_784)" fill-opacity="0.4"/>
<path d="M133 95L381 95" stroke="url(#paint3_linear_539_784)"/>
<ellipse cx="112.5" cy="95.5" rx="4.5" ry="4.5" transform="rotate(-180 112.5 95.5)" fill="#D61336"/>
<defs>
<linearGradient id="paint0_linear_539_784" x1="112.5" y1="116" x2="112.5" y2="191" gradientUnits="userSpaceOnUse">
<stop stop-color="#0D1823"/>
<stop offset="1" stop-color="#0D1823" stop-opacity="0"/>
</linearGradient>
<linearGradient id="paint1_linear_539_784" x1="112.5" y1="2.18557e-08" x2="112.5" y2="75" gradientUnits="userSpaceOnUse">
<stop stop-color="#0D1823" stop-opacity="0"/>
<stop offset="1" stop-color="#0D1823"/>
</linearGradient>
<linearGradient id="paint2_linear_539_784" x1="92" y1="95.5" x2="0" y2="95.5" gradientUnits="userSpaceOnUse">
<stop stop-color="#0D1823"/>
<stop offset="1" stop-color="#0D1823" stop-opacity="0"/>
</linearGradient>
<linearGradient id="paint3_linear_539_784" x1="133" y1="96" x2="381" y2="96" gradientUnits="userSpaceOnUse">
<stop stop-color="#D61336"/>
<stop offset="1" stop-color="#D61336" stop-opacity="0"/>
</linearGradient>
</defs>
</svg>
