<?xml version="1.0" encoding="utf-8"?><svg viewBox="0 0 381 193" xmlns="http://www.w3.org/2000/svg" xmlns:xlink="http://www.w3.org/1999/xlink"><style>:root>svg{display:none}:root>svg:target{display:block}</style><svg fill="none" viewBox="0 0 12 11" id="arrow-slider-year" xmlns="http://www.w3.org/2000/svg"><path d="M11 10L7 5.5 11 1M5 10L1 5.5 5 1" stroke="#fff" stroke-width="1.34"/></svg><svg fill="none" viewBox="0 0 381 191" id="knowledge" xmlns="http://www.w3.org/2000/svg"><path d="M112.354 115.646a.502.502 0 00-.708 0l-3.182 3.182a.502.502 0 00.708.708l2.828-2.829 2.828 2.829a.502.502 0 00.708-.708l-3.182-3.182zM112.5 191v-75h-1v75h1z" fill="url(#bpaint0_linear_539_784)" fill-opacity=".4"/><path d="M111.646 75.354a.501.501 0 00.708 0l3.182-3.182a.5.5 0 00-.708-.707L112 74.293l-2.828-2.829a.501.501 0 00-.708.708l3.182 3.182zM112.5 75V0h-1v75h1z" fill="url(#bpaint1_linear_539_784)" fill-opacity=".4"/><path d="M92.354 95.354a.5.5 0 000-.708l-3.182-3.181a.5.5 0 10-.707.707L91.293 95l-2.829 2.828a.5.5 0 10.708.707l3.182-3.181zM0 95.5h92v-1H0v1z" fill="url(#bpaint2_linear_539_784)" fill-opacity=".4"/><path d="M133 95h248" stroke="url(#bpaint3_linear_539_784)"/><circle cx="112.5" cy="95.5" transform="rotate(-180 112.5 95.5)" fill="#D61336" r="4.5"/><defs><linearGradient id="bpaint0_linear_539_784" x1="112.5" y1="116" x2="112.5" y2="191" gradientUnits="userSpaceOnUse"><stop stop-color="#0D1823"/><stop offset="1" stop-color="#0D1823" stop-opacity="0"/></linearGradient><linearGradient id="bpaint1_linear_539_784" x1="112.5" y1="0" x2="112.5" y2="75" gradientUnits="userSpaceOnUse"><stop stop-color="#0D1823" stop-opacity="0"/><stop offset="1" stop-color="#0D1823"/></linearGradient><linearGradient id="bpaint2_linear_539_784" x1="92" y1="95.5" x2="0" y2="95.5" gradientUnits="userSpaceOnUse"><stop stop-color="#0D1823"/><stop offset="1" stop-color="#0D1823" stop-opacity="0"/></linearGradient><linearGradient id="bpaint3_linear_539_784" x1="133" y1="96" x2="381" y2="96" gradientUnits="userSpaceOnUse"><stop stop-color="#D61336"/><stop offset="1" stop-color="#D61336" stop-opacity="0"/></linearGradient></defs></svg><svg fill="none" viewBox="0 0 170 179" id="layers" xmlns="http://www.w3.org/2000/svg"><path d="M85.201 80.22l84.796 48.953-84.796 48.952L.406 129.173 85.2 80.221z" fill="#F3F3F3"/><path d="M85.201 80.72l83.93 48.453-83.93 48.453-83.93-48.453 83.93-48.452z" stroke="#0D1823" stroke-opacity=".4"/><path d="M85.201 43.563l83.93 48.453-83.93 48.452-83.93-48.452 83.93-48.453z" fill="#F3F3F3" stroke="url(#cpaint0_linear_539_458)"/><path fill="#F3F3F3" d="M85.201.838l84.795 48.952-84.795 48.952L.406 49.79z"/><path transform="scale(1.22477 .70706) rotate(45 33.102 85.168)" stroke="#0D1823" stroke-opacity=".4" d="M0 .5h96.911v96.911H0z"/><defs><linearGradient id="cpaint0_linear_539_458" x1="143.128" y1="55.731" x2="151.923" y2="114.835" gradientUnits="userSpaceOnUse"><stop stop-color="#D61336" stop-opacity="0"/><stop offset="1" stop-color="#D61336"/></linearGradient></defs></svg><svg fill="none" viewBox="0 0 8 2" id="minus" xmlns="http://www.w3.org/2000/svg"><path fill-rule="evenodd" clip-rule="evenodd" d="M0 1A.5.5 0 01.5.5h7a.5.5 0 010 1h-7A.5.5 0 010 1z" fill="#fff"/></svg><svg fill="none" viewBox="0 0 21 28" id="play" xmlns="http://www.w3.org/2000/svg"><path d="M21 14L0 0v28l21-14z" fill="#fff"/></svg><svg fill="none" viewBox="0 0 8 8" id="plus" xmlns="http://www.w3.org/2000/svg"><path fill-rule="evenodd" clip-rule="evenodd" d="M0 4a.5.5 0 01.5-.5h7a.5.5 0 010 1h-7A.5.5 0 010 4z" fill="#fff"/><path fill-rule="evenodd" clip-rule="evenodd" d="M4 0a.5.5 0 01.5.5v7a.5.5 0 01-1 0v-7A.5.5 0 014 0z" fill="#fff"/></svg><svg fill="none" viewBox="0 0 381 191" id="prelom" xmlns="http://www.w3.org/2000/svg"><mask id="ga" style="mask-type:alpha" maskUnits="userSpaceOnUse" x="0" y="78" width="381" height="113"><path transform="rotate(-180 381 191)" fill="#575757" d="M381 191h381v113H381z"/></mask><g mask="url(#ga)"><path d="M105.5 78c0-46.668 37.832-84.5 84.5-84.5s84.5 37.832 84.5 84.5-37.832 84.5-84.5 84.5-84.5-37.832-84.5-84.5z" stroke="#0D1823" stroke-opacity=".4"/></g><mask id="gb" style="mask-type:alpha" maskUnits="userSpaceOnUse" x="0" y="0" width="381" height="78"><path transform="matrix(-1 0 0 1 381 0)" fill="#575757" d="M0 0h381v78H0z"/></mask><g mask="url(#gb)"><path d="M118.5 78c0-40.04 32.459-72.5 72.5-72.5s72.5 32.46 72.5 72.5c0 40.041-32.459 72.5-72.5 72.5s-72.5-32.459-72.5-72.5z" stroke="#0D1823" stroke-opacity=".4"/></g><path stroke="url(#gpaint0_linear_539_424)" d="M366 78.5H14"/><defs><linearGradient id="gpaint0_linear_539_424" x1="366" y1="77.5" x2="14" y2="77.5" gradientUnits="userSpaceOnUse"><stop stop-color="#D61336" stop-opacity="0"/><stop offset="1" stop-color="#D61336"/></linearGradient></defs></svg><svg fill="none" viewBox="0 0 381 191" id="research" xmlns="http://www.w3.org/2000/svg"><circle cx="176.5" cy="86.5" r="79" stroke="#0D1823" stroke-opacity=".4"/><circle cx="68.998" cy="53.001" r="31.5" stroke="#D61336"/><circle cx="53" cy="138" r="52.5" stroke="#0D1823" stroke-opacity=".4"/><circle cx="105.997" cy="18" r="17.5" stroke="#0D1823" stroke-opacity=".4"/><path stroke="url(#hpaint0_linear_539_735)" d="M176.997 95.498h204"/><circle cx="255.5" cy="95.5" r="4.5" fill="#D61336"/><defs><linearGradient id="hpaint0_linear_539_735" x1="176.997" y1="96.498" x2="380.997" y2="96.498" gradientUnits="userSpaceOnUse"><stop stop-color="#D61336" stop-opacity="0"/><stop offset="1" stop-color="#D61336"/></linearGradient></defs></svg><svg fill="none" viewBox="0 0 381 193" id="vision" xmlns="http://www.w3.org/2000/svg"><path transform="matrix(.31613 .94872 -.98113 .19334 105.109 1)" stroke="#0D1823" stroke-opacity=".4" d="M0-.5h100.977"/><path transform="matrix(.59336 .80494 -.91668 .39962 67.738 2.796)" stroke="#0D1823" stroke-opacity=".4" d="M0-.5h116.783"/><path transform="matrix(.8543 .5198 -.7171 .69698 66.18 53.69)" stroke="#0D1823" stroke-opacity=".4" d="M0-.5h82.935"/><path transform="matrix(.31613 -.94872 -.98113 -.19334 105.109 192)" stroke="#0D1823" stroke-opacity=".4" d="M0-.5h100.977"/><path transform="matrix(.59336 -.80494 -.91668 -.39962 67.738 190.206)" stroke="#0D1823" stroke-opacity=".4" d="M0-.5h116.783"/><path transform="matrix(.8543 -.5198 -.7171 -.69698 66.18 139.313)" stroke="#0D1823" stroke-opacity=".4" d="M0-.5h82.935"/><path stroke="url(#ipaint0_linear_539_758)" d="M0 96.386h381"/><circle cx="136.5" cy="96.42" r="4.5" fill="#D61336"/><defs><linearGradient id="ipaint0_linear_539_758" x1="0" y1="97.386" x2="381" y2="97.386" gradientUnits="userSpaceOnUse"><stop stop-color="#D61336"/><stop offset=".36" stop-color="#D61336" stop-opacity="0"/><stop offset=".79" stop-color="#D61336"/></linearGradient></defs></svg></svg>